<?xml version="1.0" encoding="utf-8"?>
<!-- Generator: Adobe Illustrator 21.0.0, SVG Export Plug-In . SVG Version: 6.00 Build 0)  -->
<svg version="1.1" id="Layer_1" xmlns="http://www.w3.org/2000/svg" xmlns:xlink="http://www.w3.org/1999/xlink" x="0px" y="0px"
	 viewBox="0 0 321.4 310" style="enable-background:new 0 0 321.4 310;" xml:space="preserve">
<style type="text/css">
	.st0{fill-opacity:0.2;}
	.st1{fill:#FFFFFF;}
	.st2{fill:#F5E3A9;}
</style>
<g id="g5400">
	<path class="st0" d="M283.8,10.8c-54.6-8.4-191.5-8.4-246.2,0C18.8,13.7,4.2,29.5,3,48.8c-4,64.4-3.9,162.2,0.3,222.8
		c1.2,16.6,14.7,31.9,30.3,36.1c11.5,3.1,242.8,3.1,254.3,0c15.6-4.2,29.2-19.5,30.3-36.1c4.2-60.5,4.3-158.4,0.3-222.8
		C317.2,29.5,302.6,13.7,283.8,10.8z"/>
	<path class="st1" d="M282.9,6.3c-54.4-8.4-189.9-8.4-244.3,0C19.8,9.2,5.2,25,4,44.3c-4,64.4-3.9,162.2,0.3,222.8
		c1.2,16.6,14.7,31.9,30.2,36.1c11.4,3.1,241,3.1,252.5,0c15.5-4.2,29-19.5,30.2-36.1c4.2-60.5,4.3-158.4,0.3-222.8
		C316.2,25,301.6,9.2,282.9,6.3z"/>
	<path class="st2" d="M277.8,9.3c-52.9-8.1-181.3-8.1-234.2,0c-18.2,2.8-32.4,18.1-33.5,36.9c-3.9,62.5-3.8,157.4,0.3,216.2
		c1.1,16.2,14.2,31,29.3,35.1c11.1,3,231,3,242.1,0c15.1-4.1,28.2-18.9,29.3-35.1c4.1-58.8,4.2-153.7,0.3-216.2
		C310.1,27.5,296,12.1,277.8,9.3z"/>
	<path class="st2" d="M277.8,9.3c-52.9-8.1-181.3-8.1-234.2,0c-18.2,2.8-32.4,18.1-33.5,36.9c-1.7,27.6-2.7,49-2.8,69.5
		c0.2,21.2,1.2,75.2,3.1,102.4c1.1,16.2,14.2,31,29.3,35.1c11.1,3,231,3,242.1,0c15.1-4.1,28.2-18.9,29.3-35.1
		c1.9-27.2,2.9-81.3,3.1-102.5c-0.2-20.4-1.1-41.8-2.8-69.4C310.1,27.5,296,12.1,277.8,9.3z"/>
</g>
</svg>
