<?xml version="1.0" encoding="utf-8"?>
<!-- Generator: Adobe Illustrator 21.0.0, SVG Export Plug-In . SVG Version: 6.00 Build 0)  -->
<svg version="1.1" id="Layer_1" xmlns="http://www.w3.org/2000/svg" xmlns:xlink="http://www.w3.org/1999/xlink" x="0px" y="0px"
	 viewBox="0 0 66.5 70" style="enable-background:new 0 0 66.5 70;" xml:space="preserve">
<style type="text/css">
	.st0{fill-opacity:0.2;}
	.st1{fill:#FFFFFF;}
	.st2{fill:#FEC230;}
	.st3{fill:#E6E6E6;}
</style>
<g id="g1816_1_">
	<g id="g1806_1_">
		<path class="st0" d="M7.1,9.9c-9.5,9.5-9.5,43.7,0,53.1c9.4,9.4,42.9,9.4,52.3,0c9.5-9.5,9.5-43.7,0-53.1
			C49.8,0.3,16.7,0.3,7.1,9.9z"/>
		<path class="st1" d="M7.1,7.2c-9.5,9.5-9.5,43.7,0,53.1c9.4,9.4,42.9,9.4,52.3,0c9.5-9.5,9.5-43.7,0-53.1
			C49.8-2.4,16.7-2.4,7.1,7.2z"/>
		<path class="st2" d="M9.6,8C1,16.5,1,47.5,9.6,56.1c8.5,8.5,38.9,8.5,47.4,0c8.6-8.6,8.6-39.6,0-48.1C48.2-0.7,18.3-0.7,9.6,8z"/>
		<path class="st3" d="M59.4,58.8c-9.4,9.4-42.9,9.4-52.3,0C2.5,54.2,0.1,43.7,0,33c-0.1,11.1,2.3,22.4,7.1,27.2
			c9.4,9.4,42.9,9.4,52.3,0c4.8-4.8,7.2-16.1,7.1-27.2C66.4,43.7,64,54.2,59.4,58.8z"/>
	</g>
</g>
</svg>
