<?xml version="1.0" encoding="utf-8"?>
<!-- Generator: Adobe Illustrator 21.1.0, SVG Export Plug-In . SVG Version: 6.00 Build 0)  -->
<svg version="1.1" id="Layer_1" xmlns="http://www.w3.org/2000/svg" xmlns:xlink="http://www.w3.org/1999/xlink" x="0px" y="0px"
	 viewBox="0 0 53.7 53.7" style="enable-background:new 0 0 53.7 53.7;" xml:space="preserve">
<style type="text/css">
	.st0{fill:#F16074;}
	.st1{fill:#FFFFFF;}
</style>
<g>
	<g>
		<path class="st0" d="M53.7,26.1c0.2,7.1-2.4,14-7.3,19.2c-4.9,5.2-11.6,8.2-18.8,8.4c-7.1,0.2-14-2.4-19.2-7.3
			C3.3,41.5,0.2,34.8,0,27.7c-0.2-7.1,2.4-14,7.3-19.2C12.2,3.3,19,0.2,26.1,0c7.4-0.2,14.2,2.6,19.2,7.3
			C50.3,12,53.5,18.7,53.7,26.1L53.7,26.1z"/>
	</g>
	<g>
		<g>
			<path class="st1" d="M18.1,18.4c0.2,0,0.3-0.1,0.3-0.3c0-3.9,8.7-7.8,8.7-7.8c0.2-0.1,0.2-0.3,0.2-0.4c-0.1-0.2-0.3-0.2-0.4-0.2
				c-0.4,0.2-9.1,4.2-9.1,8.5C17.8,18.3,17.9,18.4,18.1,18.4z"/>
			<path class="st1" d="M41.4,17.7h-0.6C40.6,15,38.3,12,34,8.7c-3.4-2.5-6.7-4.2-6.8-4.2c-0.1,0-0.2,0-0.3,0c0,0-3.4,1.7-6.8,4.2
				c-4.4,3.2-6.7,6.2-6.9,8.9h-0.6c-0.2,0-0.3,0.2-0.3,0.3v25c0,0.2,0.2,0.3,0.3,0.3c0.2,0,0.3-0.1,0.3-0.3v-1.2h2V43
				c0,0.2,0.2,0.3,0.3,0.3c0.2,0,0.3-0.1,0.3-0.3V18.4h0.2c0.2,0,0.3-0.1,0.3-0.3c0-4.6,9.5-9.4,10.8-10c1.3,0.6,10.8,5.4,10.8,10
				c0,0.2,0.2,0.3,0.3,0.3h0.2V43c0,0.2,0.2,0.3,0.3,0.3c0.2,0,0.3-0.1,0.3-0.3v-1.2h2V43c0,0.2,0.2,0.3,0.3,0.3
				c0.2,0,0.3-0.1,0.3-0.3V18C41.7,17.8,41.6,17.7,41.4,17.7z M39.1,20.5h2v19.2h-2V20.5z M15,39.7h-2V20.5h2V39.7z M13,41.1v-0.8h2
				v0.8H13z M27.2,7.4c-0.1,0-0.2,0-0.3,0C26.4,7.6,16,12.5,15.6,17.7h-0.2c-0.2,0-0.3,0.2-0.3,0.3v1.7h-2v-1.4h0.6
				c0.2,0,0.3-0.1,0.3-0.3c0-5.8,11.7-12,13.1-12.8c1.5,0.8,13.1,7,13.1,12.8c0,0.2,0.1,0.3,0.3,0.3h0.6v1.4h-2v-1.7
				c0-0.2-0.2-0.3-0.3-0.3h-0.2C38.1,12.5,27.6,7.6,27.2,7.4z M39.1,41.1v-0.8h2v0.8H39.1z"/>
			<path class="st1" d="M37.3,19.2c-0.2,0-0.3,0.1-0.3,0.3V30c0,0.2,0.1,0.3,0.3,0.3c0.2,0,0.3-0.2,0.3-0.3V19.5
				C37.6,19.4,37.5,19.2,37.3,19.2z"/>
			<path class="st1" d="M37.3,31.7c-0.2,0-0.3,0.2-0.3,0.3v2.8c0,0.2,0.1,0.3,0.3,0.3c0.2,0,0.3-0.2,0.3-0.3V32
				C37.6,31.8,37.5,31.7,37.3,31.7z"/>
		</g>
		<g>
			<path class="st1" d="M33,32.6c0-3.7-2.6-5.8-7.4-5.8v-4.1l6.4,0v-3.7h-8.3v4.4c0,0.2-0.2,0.3-0.3,0.3c-0.2,0-0.3-0.2-0.3-0.3
				v-4.4H22V30c0.6-0.1,1.3-0.1,1.9-0.1c3.4,0,5,1.1,5,3.1c0,2-1.6,3.4-4.4,3.4c-1.1,0-2.1-0.1-2.8-0.4l-0.4,3.4
				c0.8,0.2,2,0.3,3,0.3c2.2,0,4.1-0.5,5.6-1.5v-4c0-0.2,0.1-0.3,0.3-0.3c0.2,0,0.3,0.1,0.3,0.3v3.5C32.1,36.5,33,34.7,33,32.6z"/>
		</g>
	</g>
</g>
</svg>
