<?xml version="1.0" encoding="utf-8"?>
<!-- Generator: Adobe Illustrator 21.0.0, SVG Export Plug-In . SVG Version: 6.00 Build 0)  -->
<svg version="1.1" id="Layer_1" xmlns="http://www.w3.org/2000/svg" xmlns:xlink="http://www.w3.org/1999/xlink" x="0px" y="0px"
	 viewBox="0 0 24.5 27" style="enable-background:new 0 0 24.5 27;" xml:space="preserve">
<style type="text/css">
	.st0{fill:#B3752E;stroke:#68320E;stroke-width:2.6907;stroke-miterlimit:10;}
	.st1{opacity:0.3;fill:#8A4D1C;}
	.st2{fill:#FDD9B1;}
	.st3{opacity:0.7;fill:#CC8352;}
</style>
<g>
	<path class="st0" d="M21.3,14.5c-2.1-2.4-5.5-3.7-8.3-5.1C9.6,7.7,6.3,5.8,3.4,3.1c-0.4-0.3-1-0.2-1.1,0.3C0.9,8.5,4,14.9,6.4,19.1
		c2.5,4.4,6.5,7.7,11.9,6.1C23.3,23.8,24.7,18.2,21.3,14.5z"/>
	<path class="st1" d="M21.2,14.4c0,1-0.2,2-0.9,2.9c-1.8,2.4-6.1,1.8-8.1,0.1C9.9,15.6,3.6,8.8,6.7,5.7C5.6,4.9,4.5,4.1,3.4,3.1
		c-0.4-0.3-1-0.2-1.1,0.3C0.9,8.5,4,14.9,6.4,19.1c2.5,4.4,6.5,7.7,11.9,6.1C23.3,23.8,24.7,18.2,21.2,14.4
		C21.2,14.5,21.2,14.4,21.2,14.4z"/>
	<path class="st0" d="M5.7,2.7C5,1.8,3.7,1.3,2.6,1.4C1.6,1.5,0.8,2.6,1.9,3.8C3,5.1,7.6,5.2,5.7,2.7C5.2,2,6.4,3.7,5.7,2.7z"/>
	<path class="st2" d="M2.5,1.9c-0.6,0-0.3,0.9,0.1,0.6c0.3-0.2,0.8-0.1,1.1,0.1c0.1,0,0.2,0,0.1-0.1C3.6,2,3,1.8,2.5,1.9z"/>
	<path class="st3" d="M6.1,6.6C5.9,6.5,5.6,6.7,5.8,6.9c1.5,2.1,3.6,3.4,5.8,4.5c3.1,1.7,5.5,3.5,8.2,5.9c0.2,0.2,0.7,0.1,0.6-0.2
		C19.7,11.3,10.1,9.1,6.1,6.6z"/>
</g>
</svg>
