<?xml version="1.0" encoding="utf-8"?>
<!-- Generator: Adobe Illustrator 21.0.0, SVG Export Plug-In . SVG Version: 6.00 Build 0)  -->
<svg version="1.1" id="Layer_1" xmlns="http://www.w3.org/2000/svg" xmlns:xlink="http://www.w3.org/1999/xlink" x="0px" y="0px"
	 viewBox="0 0 19.4 30.7" style="enable-background:new 0 0 19.4 30.7;" xml:space="preserve">
<style type="text/css">
	.st0{fill:#B3752E;stroke:#68320E;stroke-width:2.6907;stroke-miterlimit:10;}
	.st1{opacity:0.3;fill:#8A4D1C;}
	.st2{fill:#FDD9B1;}
	.st3{opacity:0.7;fill:#CC8352;}
</style>
<g>
	<path class="st0" d="M17.5,20.3c-1.2-3-3.8-5.4-5.9-7.7c-2.6-2.8-5-5.8-6.7-9.2C4.6,2.9,4,2.8,3.6,3.2C0.5,7.5,1.2,14.6,2,19.4
		c0.8,5,3.3,9.5,9,9.9C16.1,29.7,19.3,25,17.5,20.3z"/>
	<path class="st1" d="M17.5,20.2c-0.3,1-0.9,1.8-1.8,2.4c-2.6,1.5-6.3-0.4-7.6-2.7c-1.5-2.6-5-11.2-1-12.9C6.2,5.8,5.4,4.6,4.8,3.4
		C4.6,2.9,4,2.8,3.6,3.2C0.5,7.5,1.2,14.6,2,19.4c0.8,5,3.3,9.5,9,9.9c5.2,0.4,8.4-4.3,6.6-9.1C17.5,20.2,17.5,20.2,17.5,20.2z"/>
	<path class="st0" d="M7.1,3.7c-0.3-1-1.3-2-2.4-2.3c-1-0.3-2.2,0.5-1.6,2.1C3.7,5,7.9,6.7,7.1,3.7C6.8,2.9,7.4,4.9,7.1,3.7z"/>
	<path class="st2" d="M4.3,1.8C3.8,1.7,3.7,2.5,4.3,2.5c0.4,0,0.8,0.2,1,0.5c0.1,0.1,0.2,0,0.2-0.1C5.4,2.3,4.9,2,4.3,1.8z"/>
	<path class="st3" d="M6,7.5C5.9,7.4,5.6,7.5,5.6,7.7c0.7,2.5,2.2,4.4,3.9,6.3c2.3,2.7,3.9,5.3,5.6,8.4c0.1,0.3,0.6,0.4,0.7,0
		C17.2,16.7,8.9,11.2,6,7.5z"/>
</g>
</svg>
