<?xml version="1.0" encoding="utf-8"?>
<!-- Generator: Adobe Illustrator 21.0.0, SVG Export Plug-In . SVG Version: 6.00 Build 0)  -->
<svg version="1.1" id="Layer_1" xmlns="http://www.w3.org/2000/svg" xmlns:xlink="http://www.w3.org/1999/xlink" x="0px" y="0px"
	 viewBox="0 0 15.9 34.2" style="enable-background:new 0 0 15.9 34.2;" xml:space="preserve">
<style type="text/css">
	.st0{fill:#B3752E;stroke:#68320E;stroke-width:2.6907;stroke-miterlimit:10;}
	.st1{opacity:0.3;fill:#8A4D1C;}
	.st2{fill:#FDD9B1;}
	.st3{opacity:0.7;fill:#CC8352;}
</style>
<g>
	<path class="st0" d="M14.6,24.5c0.2-6.7-2.5-13.4-4.2-19.8C10.2,4.1,9.4,4,9.1,4.6C9,4.8,8.9,5,8.8,5.2c0,0,0,0,0,0
		c-3.6,4-5.7,9.2-7,14.4c-1.2,4.8-0.4,10.5,4.6,12.8c1.9,0.9,4.6,0.2,6-1.4C14.1,29.3,14.5,26.9,14.6,24.5z"/>
	<path class="st1" d="M14.6,24.5c0.2-6.7-2.5-13.4-4.2-19.8C10.2,4.1,9.4,4,9.1,4.6C9,4.8,8.9,5,8.8,5.2c0,0,0,0,0,0
		c-3.6,4-5.7,9.2-7,14.4c-1.2,4.8-0.4,10.5,4.6,12.8c1.9,0.9,4.6,0.2,6-1.4C14.1,29.3,14.5,26.9,14.6,24.5z M11.3,26.6
		c-2.7,1.5-5-0.2-5.5-2.9C5,19.5,6.4,15.3,7.9,11.4c0.3-1.3,0.7-2.6,1.5-3.7c0.3-0.4,0.8-0.3,1,0.1c0.8,1.5,0.8,3.4,1.2,5
		c0.5,1.9,1,3.8,1.3,5.8C13.3,21,13.8,25.2,11.3,26.6z"/>
	<path class="st0" d="M10.9,1.6c-1.5-1-5.3,0.7-4.5,3.1c0.8,2.5,4.9,0.1,5.1-1.6C11.5,2.4,11.3,1.9,10.9,1.6z"/>
	<path class="st2" d="M9.3,2.1C8.8,2.1,8.4,2.2,8,2.5C7.5,2.8,6.9,3.4,7.1,4c0.1,0.4,0.4,0.6,0.8,0.4c0.4-0.2,0.5-0.6,0.8-0.9
		c0.3-0.3,0.5-0.6,0.8-0.9C9.6,2.5,9.6,2.1,9.3,2.1z"/>
	<path class="st3" d="M10.1,9.3C10,9.1,9.6,9.2,9.6,9.4c1.2,5.2,3.6,12.6,0,17.1c-0.2,0.2,0.1,0.4,0.3,0.3
		C16.6,24.8,11.7,13.4,10.1,9.3z"/>
</g>
</svg>
