<?xml version="1.0" encoding="utf-8"?>
<!-- Generator: Adobe Illustrator 21.0.0, SVG Export Plug-In . SVG Version: 6.00 Build 0)  -->
<svg version="1.1" id="Layer_1" xmlns="http://www.w3.org/2000/svg" xmlns:xlink="http://www.w3.org/1999/xlink" x="0px" y="0px"
	 viewBox="0 0 28.8 23.2" style="enable-background:new 0 0 28.8 23.2;" xml:space="preserve">
<style type="text/css">
	.st0{fill:#B3752E;stroke:#68320E;stroke-width:2.6907;stroke-miterlimit:10;}
	.st1{opacity:0.3;fill:#8A4D1C;}
	.st2{fill:#FDD9B1;}
	.st3{opacity:0.7;fill:#CC8352;}
</style>
<g>
	<path class="st0" d="M13.7,20.2c5.3-3.3,8.2-9.5,11.1-14.8c0.3-0.5-0.3-1.2-0.8-0.9c-1.6,0.8-3.2,1.2-4.9,1.7
		c-3.9,0.5-7.9,0-11.6,1.3C3.5,8.9,0,13.7,1.8,18C3.9,22.9,9.8,22.6,13.7,20.2z"/>
	<path class="st1" d="M13.7,20.2c5.3-3.3,8.2-9.5,11.1-14.8c0.3-0.5-0.3-1.2-0.8-0.9c-1.5,0.8-3.1,1.2-4.8,1.6
		c1.2,0.8,1.5,2.1,0.4,3.9c-1.7,2.6-4.3,5-7.3,5.9c-4.5,1.3-8.1-2-8.7-5.7c-1.9,2.2-2.9,5.1-1.8,7.9C3.9,22.9,9.8,22.6,13.7,20.2z"
		/>
	<path class="st0" d="M27.4,2.7c-1-1.8-4.9-1.9-5.7,0.1C20.2,6.4,28.6,5,27.4,2.7C27.1,2.3,27.6,3.2,27.4,2.7z"/>
	<path class="st2" d="M26.9,3.1c-0.3-0.4-0.7-0.6-1.2-0.8c-0.2-0.1-0.3,0.2-0.1,0.3c0.4,0.1,0.6,0.4,0.8,0.7
		C26.5,3.7,27.1,3.4,26.9,3.1z"/>
	<path class="st3" d="M17.9,7.5c0.2-0.1,0.1-0.4-0.1-0.3c-4.3,0.6-12.6-1-14.2,4.6c-0.1,0.4,0.3,0.6,0.6,0.4c2.4-2,4.5-2.7,7.5-3
		C13.8,9,16,8.8,17.9,7.5z"/>
</g>
</svg>
