<?xml version="1.0" encoding="utf-8"?>
<!-- Generator: Adobe Illustrator 21.0.0, SVG Export Plug-In . SVG Version: 6.00 Build 0)  -->
<svg version="1.1" id="Layer_1" xmlns="http://www.w3.org/2000/svg" xmlns:xlink="http://www.w3.org/1999/xlink" x="0px" y="0px"
	 viewBox="0 0 17.6 31.8" style="enable-background:new 0 0 17.6 31.8;" xml:space="preserve">
<style type="text/css">
	.st0{fill:#B3752E;stroke:#68320E;stroke-width:2.6907;stroke-miterlimit:10;}
	.st1{opacity:0.3;fill:#8A4D1C;}
	.st2{fill:#FDD9B1;}
	.st3{opacity:0.7;fill:#CC8352;}
</style>
<g>
	<path class="st0" d="M15.6,23.5c1.7-6-0.3-12.6-1.7-18.4c-0.1-0.6-1-0.7-1.2-0.1c-0.6,1.6-1.6,3.1-2.5,4.5
		c-2.6,2.9-5.9,5.3-7.8,8.8c-2,3.7-1.3,9.6,2.9,11.6C10.2,32.1,14.4,27.9,15.6,23.5z"/>
	<path class="st1" d="M15.6,23.5c1.7-6-0.3-12.6-1.7-18.4c-0.1-0.6-1-0.7-1.2-0.1c-0.6,1.6-1.5,3-2.4,4.4c1.4-0.2,2.5,0.6,2.9,2.6
		c0.5,3,0.2,6.6-1.5,9.3c-2.5,4-7.3,3.9-10.3,1.6c0,2.9,1.3,5.8,4,7C10.2,32.1,14.4,27.9,15.6,23.5z"/>
	<path class="st0" d="M14,1.4c-1.9-0.6-4.9,1.9-4.2,3.9C11.2,8.9,16.5,2.2,14,1.4C13.5,1.3,14.6,1.6,14,1.4z"/>
	<path class="st2" d="M13.9,2c-0.5-0.1-0.9,0-1.4,0.2c-0.2,0.1-0.1,0.4,0.1,0.3c0.4-0.1,0.7-0.1,1.1,0C14,2.7,14.2,2.1,13.9,2z"/>
	<path class="st3" d="M10.2,11.4c0.1-0.2-0.2-0.3-0.3-0.2c-2.8,3.3-10,7.7-7.5,12.9c0.2,0.3,0.7,0.2,0.7-0.1c0.4-3.1,1.5-5,3.6-7.2
		C8.2,15.2,9.7,13.5,10.2,11.4z"/>
</g>
</svg>
