<?xml version="1.0" encoding="utf-8"?>
<!-- Generator: Adobe Illustrator 21.0.0, SVG Export Plug-In . SVG Version: 6.00 Build 0)  -->
<svg version="1.1" id="Layer_1" xmlns="http://www.w3.org/2000/svg" xmlns:xlink="http://www.w3.org/1999/xlink" x="0px" y="0px"
	 viewBox="0 0 198 196.5" style="enable-background:new 0 0 198 196.5;" xml:space="preserve">
<style type="text/css">
	.st0{opacity:0.6;fill:#FFFFFF;}
	.st1{display:none;}
	.st2{display:inline;}
	.st3{fill:#262262;}
	.st4{display:inline;fill:#262262;}
</style>
<circle class="st0" cx="100" cy="98.4" r="94.8"/>
<g class="st1">
	<g class="st2">
		<path class="st3" d="M54.3,104c0.6,0.4,1.2,0.8,1.8,1c0.6,0.3,1.2,0.5,1.9,0.7c0.7,0.2,1.4,0.4,2.2,0.4c0.8,0.1,1.7,0.1,2.7,0.1h1
			h0.6c0.1,0,0.2,0.1,0.4,0.4c0.2,0.3,0.4,0.6,0.5,1c0.2,0.4,0.3,0.9,0.4,1.4c0.1,0.5,0.2,1,0.2,1.5c0,0.5-0.1,1-0.2,1.5
			c-0.1,0.5-0.3,1-0.4,1.4c-0.2,0.4-0.3,0.7-0.5,1c-0.2,0.3-0.3,0.4-0.4,0.4h-1.6c-0.6,0-1.1,0-1.5,0c-0.4,0-1-0.1-1.7-0.1
			c-0.2,1.1-0.5,2.3-0.8,3.6c-0.3,1.3-0.7,2.6-1.2,4c-0.5,1.4-1,2.7-1.6,4c-0.6,1.3-1.3,2.5-2.1,3.6c-0.8,1.1-1.6,2-2.5,2.8
			c-0.9,0.8-1.9,1.3-2.9,1.6c-1.2,0.3-2.6,0.5-4.1,0.4c-1.5-0.1-3-0.3-4.6-0.6c-1.6-0.3-3.1-0.7-4.6-1.2c-1.5-0.5-2.8-0.9-4-1.4
			c-0.5-0.2-0.8-0.4-1-0.7c-0.2-0.3-0.3-0.6-0.3-0.8c0-0.3,0.2-0.5,0.5-0.6c0.3-0.2,0.7-0.2,1.2-0.1c2.3,0.3,4.7,0.2,7.2-0.3
			c2.5-0.4,4.9-1.2,7.2-2.3c1.1-0.6,2.3-1.3,3.4-2.2c1.1-0.9,2.2-1.9,3.2-3c1-1.1,1.9-2.3,2.6-3.5c0.8-1.2,1.4-2.5,1.8-3.8
			c-0.9-0.3-1.6-0.5-2.2-0.8c-0.6-0.3-1.2-0.6-1.8-1.1c-0.2-0.2-0.3-0.3-0.4-0.5c-0.1-0.2-0.1-0.4-0.1-0.7c0.1-1.1,0.2-2.3,0.3-3.5
			c0.1-1.2,0.3-2.4,0.4-3.6c0-0.4,0.2-0.5,0.4-0.5C53.9,103.7,54.1,103.8,54.3,104z"/>
		<path class="st3" d="M106.9,106.3h1h0.8c0.1,0,0.2,0.1,0.4,0.4c0.2,0.3,0.3,0.6,0.5,1c0.2,0.4,0.3,0.9,0.4,1.4
			c0.1,0.5,0.2,1,0.2,1.5c0,0.5-0.1,1-0.2,1.5c-0.1,0.5-0.3,1-0.4,1.4c-0.2,0.4-0.3,0.8-0.5,1c-0.2,0.3-0.3,0.4-0.4,0.4h-1.7
			c-2,0-3.8-0.1-5.4-0.4c-1.6-0.3-3-0.9-4.2-1.8c-1.1-0.9-2-2.2-2.5-3.9c-0.6-1.7-0.8-4-0.6-6.8c-1.1,0-2.2,0.2-3.4,0.7
			c-1.1,0.5-2.3,1.2-3.4,2c-1.1,0.8-2.2,1.6-3.3,2.5c-1.1,0.9-2.1,1.6-3.1,2.2c-1.4,0.9-2.8,1.7-4.1,2.4c-1.3,0.7-2.6,1.2-3.9,1.7
			c-1.3,0.4-2.6,0.8-4,1c-1.4,0.2-2.8,0.3-4.3,0.3h-1.5c-0.1,0-0.2-0.1-0.4-0.4c-0.2-0.3-0.4-0.6-0.6-1c-0.2-0.4-0.3-0.9-0.5-1.4
			c-0.1-0.5-0.2-1-0.2-1.5c0-0.5,0.1-1,0.2-1.5c0.1-0.5,0.3-1,0.5-1.4c0.2-0.4,0.4-0.8,0.6-1c0.2-0.3,0.3-0.4,0.4-0.4h0.7h0.8
			c2,0,3.9-0.1,5.5-0.3c1.7-0.2,3.3-0.5,4.8-1c1.6-0.5,3.2-1.1,4.8-1.9c1.7-0.8,3.5-1.7,5.5-2.9c-0.9-0.3-1.8-0.5-2.7-0.8
			c-0.9-0.3-1.8-0.5-2.7-0.8c-0.9-0.2-1.7-0.4-2.6-0.6c-0.9-0.2-1.7-0.3-2.6-0.3c-1.2,0-2.3,0.2-3.5,0.6c-1.1,0.4-2.1,1-2.9,1.9
			c-0.4,0.4-0.8,0.6-1.1,0.4c-0.3-0.1-0.5-0.4-0.4-0.7c0.1-1.5,0.5-2.9,1.1-4.3c0.6-1.4,1.4-2.5,2.3-3.5c0.9-1,1.9-1.8,3-2.3
			c1.1-0.5,2.2-0.7,3.2-0.6c1.1,0.1,2.3,0.3,3.4,0.6c1.1,0.3,2.2,0.7,3.4,1.1c1.1,0.4,2.3,0.8,3.5,1.3c1.2,0.4,2.5,0.8,3.8,1.1
			c1,0.2,2.2,0.4,3.4,0.6c1.2,0.2,2.5,0.3,3.7,0.4c1.3,0.1,2.5,0.1,3.8,0.1c1.2,0,2.4-0.1,3.5-0.2c0.2,0,0.3,0.1,0.3,0.4
			c-0.2,0.4-0.4,1-0.8,1.7c-0.4,0.8-0.7,1.6-1.1,2.4c-0.4,0.8-0.8,1.7-1.1,2.4c-0.3,0.8-0.6,1.3-0.8,1.7c-0.7-0.1-1.4-0.2-2.1-0.2
			c-0.7-0.1-1.4-0.1-2-0.2c-0.2,0.7-0.2,1.2,0.1,1.7c0.3,0.5,0.7,0.8,1.2,1.1c0.6,0.3,1.2,0.5,1.9,0.7c0.7,0.2,1.5,0.3,2.3,0.3
			c0.8,0.1,1.5,0.1,2.2,0.1C105.8,106.3,106.4,106.3,106.9,106.3z M85.4,122.9c0.1,0.1,0.2,0.1,0.2,0.2c0,0.1,0,0.2-0.1,0.3
			l-3.9,4.4c-0.3,0.2-0.5,0.2-0.6,0l-4.8-3.9c-0.2-0.2-0.2-0.3,0-0.5L80,119c0.2-0.2,0.4-0.2,0.6-0.1L85.4,122.9z"/>
		<path class="st3" d="M128.1,105.3c0.3,0.1,0.6,0.3,1.1,0.4c0.5,0.1,1.1,0.2,1.7,0.3c0.6,0.1,1.3,0.2,2.1,0.2
			c0.7,0.1,1.5,0.1,2.2,0.1h0.9h0.6c0.1,0,0.3,0.1,0.4,0.4c0.2,0.3,0.3,0.6,0.5,1c0.2,0.4,0.3,0.9,0.4,1.4c0.1,0.5,0.2,1,0.2,1.5
			c0,0.5-0.1,1-0.2,1.5c-0.1,0.5-0.2,1-0.4,1.4c-0.2,0.4-0.3,0.8-0.5,1c-0.2,0.3-0.3,0.4-0.5,0.4h-1.5c-1.5,0-2.9-0.1-4.3-0.3
			c-1.3-0.2-2.6-0.5-3.7-0.9c-1.2-0.4-2.2-0.8-3.2-1.3c-1-0.5-1.9-1-2.7-1.5c-0.6,0.4-1.4,0.9-2.5,1.3c-1,0.5-2.1,0.9-3.3,1.3
			c-1.2,0.4-2.4,0.7-3.6,0.9c-1.2,0.3-2.3,0.4-3.2,0.4h-1.5c-0.1,0-0.2-0.1-0.4-0.4c-0.2-0.3-0.4-0.6-0.6-1
			c-0.2-0.4-0.4-0.9-0.5-1.4c-0.1-0.5-0.2-1-0.2-1.5c0-0.5,0.1-1,0.2-1.5c0.1-0.5,0.3-1,0.5-1.4c0.2-0.4,0.4-0.8,0.6-1
			c0.2-0.3,0.3-0.4,0.4-0.4h0.6h0.9c0.6,0,1.3,0,2-0.1c0.7,0,1.5-0.1,2.2-0.2c0.8-0.1,1.5-0.2,2.2-0.4c0.7-0.2,1.4-0.4,2.1-0.6
			c-0.4-1-0.6-2-0.6-2.9c0-0.9,0.2-1.9,0.5-2.9c0.2-0.7,0.5-1.5,0.9-2.3c0.4-0.8,0.9-1.7,1.4-2.5c0.5-0.8,1.1-1.7,1.7-2.4
			c0.6-0.8,1.3-1.5,2-2.1c0.7-0.6,1.4-1.1,2.1-1.4c0.7-0.3,1.4-0.5,2.1-0.5c0.6,0,1.1,0.2,1.6,0.7c0.5,0.4,0.9,1,1.2,1.6
			c0.3,0.7,0.6,1.4,0.9,2.3c0.2,0.8,0.4,1.7,0.5,2.5c0.1,0.8,0.2,1.6,0.2,2.4c0,0.8,0,1.4-0.1,2c-0.1,0.6-0.2,1.2-0.5,1.8
			c-0.2,0.6-0.5,1.1-0.9,1.6c-0.3,0.5-0.7,1-1.1,1.4C128.8,104.6,128.4,105,128.1,105.3z M128.8,75.7c0.1,0.1,0.2,0.1,0.2,0.2
			c0,0.1,0,0.2-0.1,0.3l-3.9,4.4c-0.3,0.2-0.5,0.2-0.6,0l-4.8-3.9c-0.2-0.2-0.2-0.3,0-0.5l3.9-4.4c0.2-0.2,0.4-0.2,0.6-0.1
			L128.8,75.7z M128.5,100.3c0-0.6-0.1-1.2-0.4-1.7c-0.2-0.5-0.6-1-0.9-1.4c-0.4-0.5-1-0.8-1.8-0.8c-0.4,0-0.9,0.2-1.5,0.4
			c-0.6,0.2-1.2,0.5-1.7,0.8c-0.6,0.3-1.1,0.7-1.5,1c-0.4,0.4-0.7,0.7-0.7,1c0,0.2,0.2,0.4,0.5,0.8c0.3,0.4,0.7,0.7,1.1,1.1
			c0.4,0.4,0.8,0.7,1.2,1c0.4,0.3,0.6,0.5,0.8,0.5c0.1,0,0.4-0.1,0.9-0.4c0.5-0.2,1-0.5,1.5-0.8c0.5-0.3,1-0.6,1.5-0.9
			C127.9,100.8,128.3,100.5,128.5,100.3z"/>
		<path class="st3" d="M137,115h-1.5c-0.1,0-0.3-0.1-0.5-0.4c-0.2-0.3-0.4-0.6-0.5-1c-0.2-0.4-0.3-0.9-0.4-1.4
			c-0.1-0.5-0.2-1-0.2-1.5c0-0.5,0.1-1,0.2-1.5c0.1-0.5,0.3-1,0.4-1.4c0.2-0.4,0.3-0.8,0.5-1c0.2-0.3,0.3-0.4,0.5-0.4h0.7h0.9
			c0.3,0,0.7,0,1.3,0c0.6,0,1.3,0,2.1-0.1c0.8,0,1.6-0.1,2.5-0.2c0.9-0.1,1.7-0.2,2.5-0.3c0.8-0.1,1.4-0.3,2-0.5
			c0.6-0.2,0.9-0.4,1.1-0.7L144.4,77c-0.6-1.9-1.3-3.6-2.2-5c-0.2-0.3-0.3-0.4-0.3-0.5c0-0.1,0.1-0.3,0.3-0.6c0.2-0.3,0.5-0.6,0.7-1
			c0.3-0.4,0.6-0.8,0.8-1.3c0.3-0.5,0.5-0.9,0.8-1.3c0.3-0.4,0.5-0.8,0.6-1.2c0.1-0.2,0.3-0.4,0.4-0.5c0.1-0.1,0.3,0.1,0.4,0.4
			c0.1,0.5,0.4,1.1,0.7,1.7c0.3,0.6,0.6,1.1,1,1.7c0.4,0.5,0.8,1,1.3,1.5c0.5,0.5,0.9,0.8,1.4,1.1c-0.6,1-1.1,1.9-1.5,2.7
			c-0.4,0.8-0.5,1.5-0.4,2.2l3.1,24.8c0.1,0.7,0.1,1.5,0.1,2.5c0,0.9-0.2,1.8-0.4,2.8c-0.2,0.9-0.5,1.8-0.9,2.7
			c-0.4,0.9-0.8,1.6-1.4,2.2c-0.7,0.7-1.4,1.3-2.3,1.7c-0.9,0.4-1.8,0.7-2.8,0.9c-1,0.2-2.1,0.3-3.2,0.4
			C139.4,115,138.2,115,137,115z"/>
		<path class="st3" d="M162.4,68.6c0.2,0,0.3,0.2,0.4,0.5c0.1,0.3,0.1,0.7,0.2,1.1c0,0.4,0,0.8,0,1.2c0,0.4,0,0.7,0,0.9
			c0.1,1.2,0.2,2.4,0.4,3.6c0.1,1.3,0.3,2.5,0.4,3.8c0.5,3.7,1,7.3,1.5,10.8c0.5,3.6,0.9,7.2,1.2,10.9c0.1,1,0.2,2.1,0.2,3.2
			c0,1.1,0,2.3-0.1,3.4c-0.1,1.1-0.3,2.2-0.6,3.3c-0.3,1.1-0.7,2.1-1.2,3.1c-0.2,0.4-0.5,0.7-0.8,0.7c-0.3,0-0.4-0.2-0.5-0.6
			c-0.2-2.2-0.4-4.5-0.6-6.7c-0.2-2.2-0.4-4.4-0.7-6.6c-0.2-2-0.5-4.2-0.8-6.5c-0.3-2.3-0.6-4.6-0.9-6.8c-0.3-2.2-0.6-4.3-0.8-6.2
			c-0.3-1.9-0.5-3.5-0.7-4.8c0-0.2,0-0.5,0.1-1c0.1-0.5,0.3-1,0.4-1.7c0.2-0.6,0.4-1.3,0.6-2c0.2-0.7,0.5-1.3,0.7-1.9
			c0.3-0.6,0.5-1,0.7-1.4C162.1,68.7,162.3,68.6,162.4,68.6z"/>
	</g>
</g>
<g class="st1">
	<path class="st4" d="M58.9,102.9c0.6,0.4,1.2,0.8,1.8,1c0.6,0.3,1.2,0.5,1.9,0.7c0.7,0.2,1.4,0.4,2.2,0.4c0.8,0.1,1.7,0.1,2.7,0.1
		h1h0.6c0.1,0,0.2,0.1,0.4,0.4c0.2,0.3,0.4,0.6,0.5,1c0.2,0.4,0.3,0.9,0.4,1.4c0.1,0.5,0.2,1,0.2,1.5c0,0.5-0.1,1-0.2,1.5
		c-0.1,0.5-0.3,1-0.4,1.4c-0.2,0.4-0.3,0.7-0.5,1c-0.2,0.3-0.3,0.4-0.4,0.4h-1.6c-0.6,0-1.1,0-1.5,0c-0.4,0-1-0.1-1.7-0.1
		c-0.2,1.1-0.5,2.3-0.8,3.6c-0.3,1.3-0.7,2.6-1.2,4c-0.5,1.4-1,2.7-1.6,4c-0.6,1.3-1.3,2.5-2.1,3.6c-0.8,1.1-1.6,2-2.5,2.8
		c-0.9,0.8-1.9,1.3-2.9,1.6c-1.2,0.3-2.6,0.5-4.1,0.4c-1.5-0.1-3-0.3-4.6-0.6c-1.6-0.3-3.1-0.7-4.6-1.2c-1.5-0.5-2.8-0.9-4-1.4
		c-0.5-0.2-0.8-0.4-1-0.7c-0.2-0.3-0.3-0.6-0.3-0.8c0-0.3,0.2-0.5,0.5-0.6c0.3-0.2,0.7-0.2,1.2-0.1c2.3,0.3,4.7,0.2,7.2-0.3
		c2.5-0.4,4.9-1.2,7.2-2.3c1.1-0.6,2.3-1.3,3.4-2.2c1.1-0.9,2.2-1.9,3.2-3c1-1.1,1.9-2.3,2.6-3.5c0.8-1.2,1.4-2.5,1.8-3.8
		c-0.9-0.3-1.6-0.5-2.2-0.8c-0.6-0.3-1.2-0.6-1.8-1.1c-0.2-0.2-0.3-0.3-0.4-0.5c-0.1-0.2-0.1-0.4-0.1-0.7c0.1-1.1,0.2-2.3,0.3-3.5
		c0.1-1.2,0.3-2.4,0.4-3.6c0-0.4,0.2-0.5,0.4-0.5C58.5,102.7,58.7,102.8,58.9,102.9z"/>
	<path class="st4" d="M86,87.5c0.4,0,0.7,0.2,1,0.6c0.3,0.4,0.5,0.9,0.8,1.5c0.2,0.6,0.4,1.3,0.6,2c0.2,0.7,0.3,1.4,0.4,2.1
		c0.1,0.7,0.1,1.3,0.2,1.9c0,0.6,0.1,1,0.1,1.3c0,1.7-0.4,3.3-0.9,4.9c-0.6,1.5-1.5,2.8-2.7,3.8c1.7-0.2,3.2-0.3,4.7-0.3
		c1.5,0,3.1,0,4.7,0h0.9h0.6c0.1,0,0.2,0.1,0.4,0.4c0.2,0.3,0.4,0.6,0.5,1c0.2,0.4,0.3,0.9,0.4,1.4c0.1,0.5,0.2,1,0.2,1.5
		c0,0.5-0.1,1-0.2,1.5c-0.1,0.5-0.3,1-0.4,1.4c-0.2,0.4-0.3,0.8-0.5,1c-0.2,0.3-0.3,0.4-0.4,0.4h-1.5l-5.5-0.1
		c0.4,0.4,0.7,0.9,0.9,1.5c0.3,0.6,0.4,1.3,0.6,2c0.1,0.7,0.2,1.4,0.3,2c0,0.7,0,1.3,0,1.8c0,0.7-0.2,1.5-0.5,2.3
		c-0.3,0.9-0.6,1.7-1.1,2.4c-0.5,0.8-1,1.4-1.7,1.9c-0.6,0.5-1.4,0.8-2.2,0.8c-1.6,0-2.9-0.5-4.1-1.5c-1.2-1-2.2-2.2-3.1-3.6
		c-0.8-1.4-1.5-2.9-2-4.5c-0.5-1.6-0.8-3-0.9-4.3c-0.3,0.1-0.6,0.2-1,0.3c-0.4,0.1-0.7,0.2-1,0.2c-0.3,0.1-0.6,0.1-0.8,0.1
		c-0.2,0-0.4,0-0.4-0.1c0-0.1-0.1-0.2,0-0.3c0-0.1,0.1-0.3,0.2-0.4c0.1-0.2,0.1-0.3,0.2-0.4c0.1-0.1,0.1-0.3,0.1-0.4
		c-0.6,0.1-1.3,0.2-1.9,0.2c-0.6,0-1.2,0.1-1.8,0.1h-1.5c-0.1,0-0.2-0.1-0.4-0.4c-0.2-0.3-0.4-0.6-0.6-1c-0.2-0.4-0.4-0.9-0.5-1.4
		c-0.1-0.5-0.2-1-0.2-1.5c0-0.5,0.1-1,0.2-1.5c0.1-0.5,0.3-1,0.5-1.4c0.2-0.4,0.4-0.8,0.6-1c0.2-0.3,0.3-0.4,0.5-0.4h0.7h0.8
		c0.6,0,1.2,0,1.8,0c0.6,0,1.3,0,1.8,0c0.6,0,1.1,0,1.7-0.1c0.5,0,0.9-0.1,1.3-0.1c0.3-1.4,0.7-2.7,1.1-4.1c0.5-1.3,1-2.6,1.7-3.9
		c0.2-0.4,0.4-0.8,0.7-1.5c0.3-0.6,0.7-1.3,1.1-2c0.4-0.7,0.8-1.4,1.3-2.2c0.5-0.7,0.9-1.4,1.4-2c0.5-0.6,1-1.1,1.4-1.5
		C85.1,87.6,85.5,87.5,86,87.5z M78.5,104.8c0.5-0.2,1.1-0.4,1.8-0.8c0.7-0.3,1.5-0.7,2.2-1.1c0.7-0.4,1.4-0.9,2-1.3
		c0.6-0.5,1-0.9,1.3-1.4c-0.1-0.6-0.2-1.3-0.4-1.8c-0.2-0.6-0.4-1.1-0.6-1.5c-0.1-0.2-0.2-0.3-0.4-0.4c-0.2-0.1-0.4-0.1-0.7-0.1
		c-0.6,0.2-1.3,0.6-1.8,1.3c-0.6,0.7-1.1,1.5-1.6,2.3c-0.5,0.9-0.8,1.8-1.1,2.6C78.9,103.5,78.7,104.2,78.5,104.8z M78.9,114.3
		c0.5,1.4,1.3,2.6,2.2,3.7c0.9,1,2.2,1.7,3.8,2c0.2,0,0.6,0.1,1,0.1c0.4,0,0.8,0,1.1-0.1c0.4-0.1,0.7-0.2,0.9-0.3
		c0.3-0.2,0.4-0.4,0.4-0.6c0-0.4-0.2-0.8-0.6-1.2c-0.4-0.4-0.8-0.8-1.4-1.1c-0.6-0.3-1.2-0.7-1.9-1c-0.7-0.3-1.4-0.5-2.1-0.8
		c-0.7-0.2-1.3-0.4-1.9-0.5C79.7,114.4,79.2,114.3,78.9,114.3z"/>
	<path class="st4" d="M105,99.7c0.2-0.5,0.3-1.4,0.3-2.7s-0.1-2.7-0.3-4.3c-0.2-1.6-0.4-3.3-0.6-5.1c-0.3-1.8-0.5-3.5-0.8-5.1
		c-0.3-1.6-0.5-3-0.8-4.3c-0.3-1.2-0.5-2.1-0.6-2.6c-0.1-0.4-0.3-0.7-0.4-1.2c-0.2-0.4-0.3-0.8-0.5-1.2c-0.2-0.4-0.4-0.8-0.5-1.1
		c-0.2-0.4-0.3-0.6-0.5-0.9c-0.2-0.2-0.3-0.4-0.3-0.5s0.1-0.3,0.3-0.6l2.9-4.8c0.1-0.2,0.2-0.4,0.4-0.5c0.1-0.1,0.3,0.1,0.4,0.4
		c0.2,0.5,0.4,1,0.7,1.6c0.3,0.6,0.6,1.1,1,1.7c0.4,0.5,0.8,1,1.3,1.5c0.5,0.5,0.9,0.8,1.4,1.1c-0.6,1.1-1.1,2-1.5,2.7
		c-0.4,0.8-0.5,1.5-0.4,2.2c0.3,1.4,0.5,2.9,0.9,4.4c0.3,1.5,0.6,3.2,0.7,4.9c0.2,1.7,0.3,3.6,0.2,5.6c0,2-0.3,4.1-0.7,6.4
		c0.7-0.6,1.4-1.2,2.3-2c0.8-0.8,1.7-1.5,2.6-2.2c0.9-0.7,1.8-1.4,2.7-2.1c0.9-0.6,1.8-1.2,2.6-1.5c1.2-0.5,2.6-0.8,4.1-0.6
		c1.5,0.1,2.9,0.5,4.3,1.1c1.4,0.6,2.5,1.5,3.5,2.5c1,1,1.5,2.2,1.6,3.5c0,0.7-0.1,1.5-0.3,2.3c-0.2,0.8-0.4,1.6-0.7,2.4
		c-0.3,0.8-0.7,1.6-1.1,2.4c-0.4,0.8-0.9,1.5-1.4,2.3c1.2,0,2.3,0,3.4,0c1.1,0,2,0,2.7,0h2.4c0.1,0,0.2,0.1,0.4,0.4
		c0.2,0.3,0.4,0.6,0.5,1c0.2,0.4,0.3,0.9,0.4,1.4c0.1,0.5,0.2,1,0.2,1.5c0,0.5-0.1,1-0.2,1.5c-0.1,0.5-0.3,1-0.4,1.4
		c-0.2,0.4-0.3,0.8-0.5,1c-0.2,0.3-0.3,0.4-0.4,0.4h-1.5c-3.4,0-6.9,0-10.5-0.1c-3.6-0.1-7.2-0.2-10.8-0.4c-1.7,0.1-3.3,0.2-4.8,0.3
		c-1.4,0.1-2.8,0.1-4.1,0.1c-1.3,0-2.6,0.1-3.9,0.1c-1.3,0-2.7,0-4.1,0h-1.5c-0.1,0-0.2-0.1-0.4-0.4c-0.2-0.3-0.3-0.6-0.5-1
		c-0.2-0.4-0.3-0.9-0.4-1.4c-0.1-0.5-0.2-1-0.2-1.5c0-0.5,0.1-1,0.2-1.5c0.1-0.5,0.3-1,0.4-1.4c0.2-0.4,0.3-0.8,0.5-1
		c0.2-0.3,0.3-0.4,0.4-0.4h1.5c0.6,0,1.1,0,1.5,0c0.4,0,0.9,0,1.4,0c0.9-1,1.9-2,2.8-2.8C103.1,101.6,104.1,100.7,105,99.7z
		 M125.9,100.6c-0.6-0.8-1.3-1.4-2.2-2c-0.8-0.6-1.7-1-2.6-1.3c-0.9-0.3-1.8-0.5-2.8-0.6c-0.9-0.1-1.8,0-2.7,0.2
		c-1.1,0.3-2.1,0.7-3.2,1.2c-1,0.5-2.1,1.1-3.1,1.8c-1,0.7-2,1.5-3.1,2.4c-1,0.9-2.1,1.8-3.2,2.9c1.6,0,3.5-0.1,5.5-0.2
		c2-0.1,4.1-0.3,6.2-0.7c2.1-0.3,4.1-0.8,6-1.4C122.7,102.4,124.4,101.6,125.9,100.6z M123.6,76.2c0.1,0.1,0.2,0.1,0.2,0.2
		c0,0.1,0,0.2-0.1,0.3l-3.9,4.4c-0.3,0.2-0.5,0.2-0.6,0l-4.8-3.9c-0.2-0.2-0.2-0.3,0-0.5l3.9-4.4c0.2-0.2,0.4-0.2,0.6-0.1
		L123.6,76.2z"/>
	<path class="st4" d="M136.5,113.9h-1.5c-0.1,0-0.3-0.1-0.5-0.4c-0.2-0.3-0.4-0.6-0.5-1c-0.2-0.4-0.3-0.9-0.4-1.4
		c-0.1-0.5-0.2-1-0.2-1.5c0-0.5,0.1-1,0.2-1.5c0.1-0.5,0.3-1,0.4-1.4c0.2-0.4,0.3-0.8,0.5-1c0.2-0.3,0.3-0.4,0.5-0.4h0.7h0.9
		c0.3,0,0.7,0,1.3,0c0.6,0,1.3,0,2.1-0.1c0.8,0,1.6-0.1,2.5-0.2c0.9-0.1,1.7-0.2,2.5-0.3c0.8-0.1,1.4-0.3,2-0.5
		c0.6-0.2,0.9-0.4,1.1-0.7L143.8,76c-0.6-1.9-1.3-3.6-2.2-5c-0.2-0.3-0.3-0.4-0.3-0.5c0-0.1,0.1-0.3,0.3-0.6c0.2-0.3,0.5-0.6,0.7-1
		c0.3-0.4,0.6-0.8,0.8-1.3c0.3-0.5,0.5-0.9,0.8-1.3c0.3-0.4,0.5-0.8,0.6-1.2c0.1-0.2,0.3-0.4,0.4-0.5c0.1-0.1,0.3,0.1,0.4,0.4
		c0.1,0.5,0.4,1.1,0.7,1.7c0.3,0.6,0.6,1.1,1,1.7c0.4,0.5,0.8,1,1.3,1.5c0.5,0.5,0.9,0.8,1.4,1.1c-0.6,1-1.1,1.9-1.5,2.7
		c-0.4,0.8-0.5,1.5-0.4,2.2l3.1,24.8c0.1,0.7,0.1,1.5,0.1,2.5c0,0.9-0.2,1.8-0.4,2.8c-0.2,0.9-0.5,1.8-0.9,2.7
		c-0.4,0.9-0.8,1.6-1.4,2.2c-0.7,0.7-1.4,1.3-2.3,1.7c-0.9,0.4-1.8,0.7-2.8,0.9c-1,0.2-2.1,0.3-3.2,0.4
		C138.8,113.9,137.6,113.9,136.5,113.9z"/>
	<path class="st4" d="M161.9,67.5c0.2,0,0.3,0.2,0.4,0.5c0.1,0.3,0.1,0.7,0.2,1.1c0,0.4,0,0.8,0,1.2c0,0.4,0,0.7,0,0.9
		c0.1,1.2,0.2,2.4,0.4,3.6c0.1,1.3,0.3,2.5,0.4,3.8c0.5,3.7,1,7.3,1.5,10.8c0.5,3.6,0.9,7.2,1.2,10.9c0.1,1,0.2,2.1,0.2,3.2
		c0,1.1,0,2.3-0.1,3.4c-0.1,1.1-0.3,2.2-0.6,3.3c-0.3,1.1-0.7,2.1-1.2,3.1c-0.2,0.4-0.5,0.7-0.8,0.7c-0.3,0-0.4-0.2-0.5-0.6
		c-0.2-2.2-0.4-4.5-0.6-6.7c-0.2-2.2-0.4-4.4-0.7-6.6c-0.2-2-0.5-4.2-0.8-6.5c-0.3-2.3-0.6-4.6-0.9-6.8c-0.3-2.2-0.6-4.3-0.8-6.2
		c-0.3-1.9-0.5-3.5-0.7-4.8c0-0.2,0-0.5,0.1-1c0.1-0.5,0.3-1,0.4-1.7c0.2-0.6,0.4-1.3,0.6-2c0.2-0.7,0.5-1.3,0.7-1.9
		c0.3-0.6,0.5-1,0.7-1.4C161.5,67.7,161.7,67.5,161.9,67.5z"/>
</g>
<g class="st1">
	<path class="st4" d="M104.9,105.4c0.5,0,1.1,0,1.6-0.1c0.6,0,1.1,0,1.7-0.1c0.6,0,1.1,0,1.6,0c0.5,0,0.9,0,1.3,0h0.9h0.6
		c0.1,0,0.2,0.1,0.4,0.4c0.2,0.3,0.4,0.6,0.5,1c0.2,0.4,0.3,0.9,0.4,1.4c0.1,0.5,0.2,1,0.2,1.5c0,0.5-0.1,1-0.2,1.5
		c-0.1,0.5-0.3,1-0.4,1.4c-0.2,0.4-0.3,0.7-0.5,1c-0.2,0.3-0.3,0.4-0.4,0.4H111c-1.6,0-2.9,0-4.1,0c-1.2,0-2.3,0-3.3,0
		c-1,0-2,0-2.9,0c-0.9,0-1.9,0-2.9,0c-1,0-2,0-3.1,0c-1.1,0-2.4-0.1-3.8-0.1c-0.9,0.1-1.9,0.3-3,0.4c-1.1,0.1-2.2,0.2-3.3,0.2
		c-1.1,0-2.2,0-3.2,0c-1.1,0-2-0.2-2.8-0.3c-0.2,0.3-0.3,0.6-0.4,1c-0.1,0.3-0.2,0.7-0.3,1c-0.2,0.8-0.6,1.2-1.1,1.1
		c-0.6-0.1-0.8-0.5-0.6-1.4c0-0.5,0.1-0.8,0.2-1.2c0.1-0.3,0.2-0.7,0.4-1.2c-0.8-0.2-1.6-0.5-2.4-0.8c-0.8-0.4-1.6-0.8-2.2-1.4
		c-0.7-0.6-1.3-1.3-1.7-2.1c-0.5-0.8-0.8-1.7-0.9-2.8c-1.7,0.6-3.4,1.2-4.9,1.7c-1.5,0.5-3.2,0.9-4.9,1.3c-0.1,1.2-0.3,2.5-0.6,4
		c-0.2,1.5-0.6,3.1-0.9,4.7c-0.4,1.6-0.9,3.2-1.4,4.8c-0.6,1.6-1.2,3.1-2,4.4c-0.8,1.4-1.7,2.5-2.8,3.5c-1.1,1-2.3,1.7-3.7,2
		c-1.2,0.3-2.6,0.5-4.1,0.4c-1.5,0-3-0.2-4.6-0.4c-1.6-0.3-3.1-0.6-4.6-1c-1.5-0.4-2.8-0.9-4-1.3c-0.5-0.2-0.8-0.4-1-0.7
		c-0.2-0.3-0.3-0.6-0.3-0.8c0-0.3,0.2-0.5,0.5-0.6c0.3-0.2,0.7-0.2,1.2-0.1c1.2,0.2,2.6,0.2,3.9,0.1c1.4-0.1,2.7-0.3,4.1-0.6
		c1.3-0.3,2.6-0.7,3.8-1.1c1.2-0.4,2.3-0.9,3.3-1.5c1.5-0.8,2.8-1.7,4-2.8c1.2-1.1,2.2-2.3,3.1-3.7c0.9-1.3,1.6-2.8,2.1-4.3
		c0.6-1.5,0.9-3.1,1.2-4.7c-0.4,0.1-0.9,0.2-1.3,0.2c-0.4,0-0.9,0.1-1.3,0.1c0,0-0.1,0-0.2-0.1c-0.1,0-0.1-0.1-0.1-0.2
		c0.1-0.4,0.2-0.9,0.3-1.4c0.1-0.6,0.2-1.2,0.4-1.8c0.1-0.6,0.3-1.3,0.4-1.9c0.1-0.6,0.3-1.2,0.4-1.7c0.1-0.2,0.2-0.4,0.3-0.4
		c1.2-0.2,2.6-0.5,4-0.9c1.4-0.3,2.8-0.7,4.2-1.1c1.4-0.4,2.8-0.9,4.1-1.3c1.4-0.5,2.6-1,3.8-1.5c0.2,0,0.3,0.1,0.3,0.3
		c-0.1,1.5-0.1,2.6,0,3.6c0.1,0.7,0.4,1.3,0.8,1.7c0.4,0.5,0.9,0.8,1.5,1.1c0.6,0.3,1.3,0.5,2.1,0.6c0.8,0.1,1.7,0.2,2.6,0.3
		c0.8-1.2,1.8-2.5,2.8-3.9c1-1.4,2.1-2.8,3.3-4.1c1.2-1.4,2.4-2.6,3.6-3.8c1.2-1.2,2.5-2.2,3.7-3c0.9-0.6,1.9-1,3-1.3
		c1.1-0.3,2.2-0.4,3.3-0.4c1.1,0,2.2,0.2,3.3,0.5c1.1,0.3,2.1,0.8,2.9,1.3c0.9,0.6,1.6,1.3,2.2,2.2c0.6,0.9,1,1.9,1.1,3.1
		c-0.1,2-0.4,3.7-1,5.3C106.7,102.8,105.9,104.2,104.9,105.4z M104,100.5c-1.2-1.4-2.5-2.3-3.9-2.8s-2.8-0.7-4.3-0.6
		c-1.3,0-2.7,0.4-4,0.9c-1.3,0.6-2.5,1.3-3.7,2.2c-1.2,0.9-2.3,1.8-3.3,2.8c-1,1-1.9,2-2.7,2.9c1,0.1,2.1,0.1,3.3,0.1
		c1.2,0,2.5-0.1,3.9-0.3c1.3-0.2,2.7-0.4,4.1-0.7c1.4-0.3,2.7-0.6,4-1.1c1.3-0.4,2.5-0.9,3.6-1.5C102.2,101.9,103.2,101.3,104,100.5
		z"/>
	<path class="st4" d="M125.1,102.5c-0.5-0.5-1.1-1-1.7-1.6c-0.6-0.5-1.3-0.9-2-1.1c-0.8-0.2-1.4-0.3-2-0.2c-0.6,0.1-1.2,0.4-1.7,0.8
		c-0.3,0.2-0.6,0.3-0.9,0.2c-0.3-0.1-0.4-0.4-0.4-1c0.1-1.4,0.4-2.7,0.9-3.9c0.5-1.2,1.3-2.2,2.2-3.1c0.9-0.8,2.1-1.5,3.4-2
		c1.4-0.5,2.9-0.7,4.6-0.6c1.1,0,2.2,0.1,3.2,0.4c1.1,0.2,2,0.6,2.9,1c0.8,0.5,1.5,1.1,2,1.8c0.5,0.7,0.8,1.6,0.8,2.6
		c0,0.7-0.1,1.4-0.4,2.1c-0.3,0.7-0.6,1.4-1,2.1c-0.4,0.6-0.8,1.2-1.2,1.7c-0.4,0.5-0.8,0.9-1.1,1.1c0.9,0.8,1.9,1.4,3.1,1.8
		c1.2,0.3,2.5,0.5,4,0.5h0.9h0.6c0.1,0,0.2,0.1,0.4,0.4c0.2,0.3,0.3,0.6,0.5,1c0.2,0.4,0.3,0.8,0.4,1.3c0.1,0.5,0.2,1,0.2,1.4
		c0,0.5-0.1,1-0.2,1.5c-0.1,0.5-0.2,1-0.4,1.5c-0.2,0.5-0.3,0.8-0.5,1.1c-0.2,0.3-0.3,0.4-0.4,0.4h-1.5c-1.6,0-3-0.1-4.1-0.4
		c-1.2-0.3-2.2-0.7-3.2-1.2c-0.9-0.5-1.8-1.1-2.5-1.8c-0.7-0.7-1.5-1.5-2.2-2.3c-1.1,1-2.3,1.8-3.6,2.5c-1.3,0.7-2.5,1.3-3.8,1.8
		c-1.3,0.5-2.6,0.8-3.9,1c-1.3,0.2-2.5,0.3-3.6,0.3h-1.5c-0.1,0-0.3-0.1-0.4-0.4c-0.2-0.3-0.3-0.6-0.5-1c-0.2-0.4-0.3-0.9-0.4-1.4
		c-0.1-0.5-0.2-1-0.2-1.5c0-0.5,0.1-1,0.2-1.5c0.1-0.5,0.3-1,0.4-1.4c0.2-0.4,0.3-0.8,0.5-1c0.2-0.3,0.3-0.4,0.4-0.4h0.6h1
		c0.9,0,1.9,0,2.9-0.1c1.1-0.1,2.1-0.2,3.2-0.4c1.1-0.2,2.2-0.5,3.2-0.9C123.3,103.5,124.2,103,125.1,102.5z"/>
	<path class="st4" d="M141.6,113.9H140c-0.1,0-0.3-0.1-0.5-0.4c-0.2-0.3-0.4-0.6-0.5-1c-0.2-0.4-0.3-0.9-0.4-1.4
		c-0.1-0.5-0.2-1-0.2-1.5c0-0.5,0.1-1,0.2-1.5c0.1-0.5,0.3-1,0.4-1.4c0.2-0.4,0.3-0.8,0.5-1c0.2-0.3,0.3-0.4,0.5-0.4h0.7h0.9
		c0.3,0,0.7,0,1.3,0c0.6,0,1.3,0,2.1-0.1c0.8,0,1.6-0.1,2.5-0.2c0.9-0.1,1.7-0.2,2.5-0.3c0.8-0.1,1.4-0.3,2-0.5
		c0.6-0.2,0.9-0.4,1.1-0.7L148.9,76c-0.6-1.9-1.3-3.6-2.2-5c-0.2-0.3-0.3-0.4-0.3-0.5c0-0.1,0.1-0.3,0.3-0.6c0.2-0.3,0.5-0.6,0.7-1
		c0.3-0.4,0.6-0.8,0.8-1.3c0.3-0.5,0.5-0.9,0.8-1.3c0.3-0.4,0.5-0.8,0.6-1.2c0.1-0.2,0.3-0.4,0.4-0.5c0.1-0.1,0.3,0.1,0.4,0.4
		c0.1,0.5,0.4,1.1,0.7,1.7c0.3,0.6,0.6,1.1,1,1.7c0.4,0.5,0.8,1,1.3,1.5c0.5,0.5,0.9,0.8,1.4,1.1c-0.6,1-1.1,1.9-1.5,2.7
		c-0.4,0.8-0.5,1.5-0.4,2.2l3.1,24.8c0.1,0.7,0.1,1.5,0.1,2.5c0,0.9-0.2,1.8-0.4,2.8c-0.2,0.9-0.5,1.8-0.9,2.7
		c-0.4,0.9-0.8,1.6-1.4,2.2c-0.7,0.7-1.4,1.3-2.3,1.7c-0.9,0.4-1.8,0.7-2.8,0.9c-1,0.2-2.1,0.3-3.2,0.4
		C143.9,113.9,142.8,113.9,141.6,113.9z"/>
	<path class="st4" d="M167,67.5c0.2,0,0.3,0.2,0.4,0.5c0.1,0.3,0.1,0.7,0.2,1.1c0,0.4,0,0.8,0,1.2c0,0.4,0,0.7,0,0.9
		c0.1,1.2,0.2,2.4,0.4,3.6c0.1,1.3,0.3,2.5,0.4,3.8c0.5,3.7,1,7.3,1.5,10.8c0.5,3.6,0.9,7.2,1.2,10.9c0.1,1,0.2,2.1,0.2,3.2
		c0,1.1,0,2.3-0.1,3.4c-0.1,1.1-0.3,2.2-0.6,3.3c-0.3,1.1-0.7,2.1-1.2,3.1c-0.2,0.4-0.5,0.7-0.8,0.7c-0.3,0-0.4-0.2-0.5-0.6
		c-0.2-2.2-0.4-4.5-0.6-6.7c-0.2-2.2-0.4-4.4-0.7-6.6c-0.2-2-0.5-4.2-0.8-6.5c-0.3-2.3-0.6-4.6-0.9-6.8c-0.3-2.2-0.6-4.3-0.8-6.2
		c-0.3-1.9-0.5-3.5-0.7-4.8c0-0.2,0-0.5,0.1-1c0.1-0.5,0.3-1,0.4-1.7c0.2-0.6,0.4-1.3,0.6-2c0.2-0.7,0.5-1.3,0.7-1.9
		c0.3-0.6,0.5-1,0.7-1.4C166.6,67.7,166.8,67.5,167,67.5z"/>
</g>
<g>
	<path class="st3" d="M72.7,84.4c0.7,0.8,1.4,1.6,2,2.5c0.6,0.9,1.2,1.9,1.6,2.9c0.5,1,0.8,2.1,1.1,3.2c0.3,1.1,0.4,2.2,0.4,3.2
		c0,0.9-0.1,1.9-0.3,3c-0.2,1.1-0.5,2.1-0.8,3c-0.3,0.9-0.6,1.7-1,2.4c-0.4,0.7-0.7,1.1-1,1.3c-3.9,2.2-8,3.8-12.4,4.7
		c-4.4,1-8.8,1.5-13.2,1.5c-1.3,0-2.7-0.1-4.1-0.2c-1.4-0.1-2.8-0.4-4.1-0.7c-1.3-0.3-2.6-0.8-3.8-1.3c-1.2-0.6-2.2-1.3-3.1-2.2
		c-0.9-0.9-1.6-1.9-2.1-3.1c-0.5-1.2-0.8-2.6-0.8-4.3c0-0.9,0.1-1.8,0.2-2.8c0.2-1,0.4-2,0.7-2.9c0.3-1,0.6-1.9,1.1-2.8
		c0.4-0.9,0.9-1.7,1.5-2.4c0.3-0.3,0.6-0.6,0.8-0.7c0.3-0.1,0.5-0.1,0.6,0c0.2,0.1,0.3,0.3,0.3,0.5c0,0.2,0,0.5-0.2,0.8
		c-0.9,1.7-1.4,3.4-1.4,5c0,1.3,0.2,2.4,0.7,3.3c0.4,0.9,1,1.7,1.8,2.3c0.7,0.6,1.6,1.1,2.6,1.5c1,0.4,2,0.7,3.1,0.8
		c1.1,0.2,2.1,0.3,3.2,0.4c1.1,0.1,2.1,0.1,3.1,0.1c4.3,0,8.4-0.4,12.4-1.1c4-0.7,7.9-1.9,11.8-3.6c0.3-0.1,0.6-0.3,0.9-0.5
		c0.3-0.2,0.4-0.5,0.3-0.9c-0.4-1.1-1-2.2-1.8-3.2c-0.9-1-1.8-2-2.9-3c0.1-0.5,0.2-1,0.4-1.6c0.2-0.6,0.4-1.2,0.6-1.8
		c0.2-0.6,0.4-1.2,0.6-1.8c0.2-0.6,0.4-1.1,0.5-1.5c0.1-0.3,0.2-0.4,0.3-0.4C72.4,84.1,72.5,84.2,72.7,84.4z M60.4,122.8
		c0.1,0.1,0.2,0.1,0.2,0.2c0,0.1,0,0.2-0.1,0.3l-3.9,4.4c-0.3,0.2-0.5,0.2-0.6,0l-4.8-3.9c-0.2-0.2-0.2-0.3,0-0.5l3.9-4.4
		c0.2-0.2,0.4-0.2,0.6-0.1L60.4,122.8z"/>
	<path class="st3" d="M95.1,100.9c0.6,0.4,1.2,0.8,1.8,1c0.6,0.3,1.2,0.5,1.9,0.7c0.7,0.2,1.4,0.4,2.2,0.4c0.8,0.1,1.7,0.1,2.7,0.1
		h1h0.6c0.1,0,0.2,0.1,0.4,0.4c0.2,0.3,0.4,0.6,0.5,1c0.2,0.4,0.3,0.9,0.4,1.4c0.1,0.5,0.2,1,0.2,1.5c0,0.5-0.1,1-0.2,1.5
		c-0.1,0.5-0.3,1-0.4,1.4c-0.2,0.4-0.3,0.7-0.5,1c-0.2,0.3-0.3,0.4-0.4,0.4h-1.6c-0.6,0-1.1,0-1.5,0c-0.4,0-1-0.1-1.7-0.1
		c-0.2,1.1-0.5,2.3-0.8,3.6c-0.3,1.3-0.7,2.6-1.2,4c-0.5,1.4-1,2.7-1.6,4c-0.6,1.3-1.3,2.5-2.1,3.6c-0.8,1.1-1.6,2-2.5,2.8
		c-0.9,0.8-1.9,1.3-2.9,1.6c-1.2,0.3-2.6,0.5-4.1,0.4c-1.5-0.1-3-0.3-4.6-0.6c-1.6-0.3-3.1-0.7-4.6-1.2c-1.5-0.5-2.8-0.9-4-1.4
		c-0.5-0.2-0.8-0.4-1-0.7c-0.2-0.3-0.3-0.6-0.3-0.8c0-0.3,0.2-0.5,0.5-0.6c0.3-0.2,0.7-0.2,1.2-0.1c2.3,0.3,4.7,0.2,7.2-0.3
		c2.5-0.4,4.9-1.2,7.2-2.3c1.1-0.6,2.3-1.3,3.4-2.2c1.1-0.9,2.2-1.9,3.2-3c1-1.1,1.9-2.3,2.6-3.5c0.8-1.2,1.4-2.5,1.8-3.8
		c-0.9-0.3-1.6-0.5-2.2-0.8c-0.6-0.3-1.2-0.6-1.8-1.1c-0.2-0.2-0.3-0.3-0.4-0.5c-0.1-0.2-0.1-0.4-0.1-0.7c0.1-1.1,0.2-2.3,0.3-3.5
		c0.1-1.2,0.3-2.4,0.4-3.6c0-0.4,0.2-0.5,0.4-0.5C94.7,100.7,94.9,100.8,95.1,100.9z"/>
	<path class="st3" d="M117.8,100.5c-0.5-0.5-1.1-1-1.7-1.6c-0.6-0.5-1.3-0.9-2-1.1c-0.8-0.2-1.4-0.3-2-0.2c-0.6,0.1-1.2,0.4-1.7,0.8
		c-0.3,0.2-0.6,0.3-0.9,0.2c-0.3-0.1-0.4-0.4-0.4-0.9c0.1-1.4,0.4-2.7,0.9-3.9c0.5-1.2,1.3-2.2,2.2-3.1c0.9-0.8,2.1-1.5,3.4-2
		c1.4-0.5,2.9-0.7,4.6-0.6c1.1,0,2.2,0.2,3.2,0.4c1.1,0.2,2,0.6,2.9,1c0.8,0.5,1.5,1.1,2,1.8c0.5,0.7,0.8,1.6,0.8,2.6
		c0,0.7-0.1,1.4-0.4,2.1c-0.3,0.7-0.6,1.4-1,2.1c-0.4,0.6-0.8,1.2-1.2,1.7c-0.4,0.5-0.8,0.9-1.1,1.1c0.9,0.8,1.9,1.4,3.1,1.8
		c1.2,0.3,2.5,0.5,4,0.5h0.9h0.6c0.1,0,0.2,0.1,0.4,0.4c0.2,0.3,0.3,0.6,0.5,1c0.2,0.4,0.3,0.8,0.4,1.3c0.1,0.5,0.2,1,0.2,1.4
		c0,0.5-0.1,1-0.2,1.5c-0.1,0.5-0.2,1-0.4,1.5c-0.2,0.5-0.3,0.8-0.5,1.1c-0.2,0.3-0.3,0.4-0.4,0.4h-1.5c-1.6,0-3-0.1-4.1-0.4
		c-1.2-0.3-2.2-0.7-3.2-1.2c-0.9-0.5-1.8-1.1-2.5-1.8c-0.7-0.7-1.5-1.5-2.2-2.3c-1.1,1-2.3,1.8-3.6,2.5c-1.3,0.7-2.5,1.3-3.8,1.8
		c-1.3,0.5-2.6,0.8-3.9,1c-1.3,0.2-2.5,0.3-3.6,0.3h-1.5c-0.1,0-0.3-0.1-0.4-0.4c-0.2-0.3-0.3-0.6-0.5-1c-0.2-0.4-0.3-0.9-0.4-1.4
		c-0.1-0.5-0.2-1-0.2-1.5c0-0.5,0.1-1,0.2-1.5c0.1-0.5,0.3-1,0.4-1.4c0.2-0.4,0.3-0.8,0.5-1c0.2-0.3,0.3-0.4,0.4-0.4h0.6h1
		c0.9,0,1.9,0,2.9-0.1c1.1-0.1,2.1-0.2,3.2-0.4c1.1-0.2,2.2-0.5,3.2-0.9C116,101.5,116.9,101,117.8,100.5z M124.1,75.3
		c0.1,0.1,0.2,0.1,0.2,0.2c0,0.1,0,0.2-0.1,0.3l-3.9,4.4c-0.3,0.2-0.5,0.2-0.6,0l-4.8-3.9c-0.2-0.2-0.2-0.3,0-0.5l3.9-4.4
		c0.2-0.2,0.4-0.2,0.6-0.1L124.1,75.3z"/>
	<path class="st3" d="M154.6,103c0.4,0.1,0.6,0.5,0.8,0.9c0.2,0.5,0.3,1.1,0.3,1.7c0,0.7,0,1.4-0.1,2.2c-0.1,0.8-0.2,1.5-0.4,2.2
		c-0.2,0.7-0.3,1.3-0.5,1.8c-0.2,0.5-0.4,0.9-0.6,1.1c-0.1,0.1-0.3,0.1-0.6-0.1c-0.6-0.4-1.3-0.7-2-1.1c-0.7-0.4-1.3-0.8-2-1.1
		c-0.7-0.3-1.3-0.6-2-0.8c-0.6-0.2-1.3-0.3-1.9-0.3c-0.8,0-1.6,0.1-2.5,0.4c-0.8,0.3-1.7,0.6-2.6,0.9c-0.9,0.3-1.9,0.6-2.9,0.9
		c-1,0.3-2.2,0.4-3.4,0.4h-1.5c-0.1,0-0.3-0.1-0.5-0.4c-0.2-0.3-0.4-0.6-0.6-1c-0.2-0.4-0.3-0.9-0.5-1.4c-0.1-0.5-0.2-1-0.2-1.5
		c0-0.5,0.1-1,0.2-1.5c0.1-0.5,0.3-1,0.5-1.4c0.2-0.4,0.4-0.8,0.6-1c0.2-0.3,0.3-0.4,0.5-0.4h0.6h0.9c1.2,0,2.2-0.1,3-0.3
		c0.8-0.2,1.5-0.4,2.2-0.6c0.7-0.2,1.4-0.5,2.1-0.7c0.7-0.2,1.6-0.4,2.6-0.4c-0.2-0.5-0.4-1.1-0.6-1.8l-1.9-10.3
		c-0.5-3.2-1-5.9-1.4-8.1c-0.4-2.2-0.7-3.8-1-5.1c0-0.3-0.1-0.7-0.3-1.1c-0.1-0.4-0.3-0.8-0.5-1.2c-0.2-0.4-0.4-0.8-0.6-1.1
		c-0.2-0.4-0.4-0.6-0.5-0.9c-0.1-0.1-0.2-0.3-0.2-0.3c0-0.1-0.1-0.2-0.1-0.2c0-0.1,0-0.1,0.1-0.2c0-0.1,0.1-0.2,0.2-0.4
		c0.2-0.3,0.5-0.6,0.7-1.1s0.6-0.9,0.8-1.3c0.3-0.5,0.6-0.9,0.8-1.3c0.3-0.4,0.5-0.8,0.6-1.1c0.1-0.2,0.2-0.4,0.4-0.5
		c0.1-0.1,0.3,0.1,0.4,0.4c0.1,0.5,0.4,1,0.6,1.6c0.3,0.6,0.6,1.1,1,1.7c0.4,0.6,0.8,1.1,1.3,1.5c0.5,0.5,0.9,0.8,1.4,1.1
		c-0.6,1-1.1,1.9-1.5,2.7c-0.4,0.8-0.5,1.5-0.4,2.2l1.7,11.5c0.5,3.2,0.9,5.6,1.2,7.3c0.3,1.7,0.6,2.7,0.8,3.1
		c0.7,1.2,1.6,2.2,2.8,2.8C151.5,102,152.9,102.5,154.6,103z"/>
	<path class="st3" d="M165.2,65.5c0.2,0,0.3,0.2,0.4,0.5c0.1,0.3,0.1,0.7,0.2,1.1c0,0.4,0,0.8,0,1.2c0,0.4,0,0.7,0,0.9
		c0.1,1.2,0.2,2.4,0.4,3.6c0.1,1.3,0.3,2.5,0.4,3.8c0.5,3.7,1,7.3,1.5,10.8c0.5,3.6,0.9,7.2,1.2,10.9c0.1,1,0.2,2.1,0.2,3.2
		c0,1.1,0,2.3-0.1,3.4c-0.1,1.1-0.3,2.2-0.6,3.3c-0.3,1.1-0.7,2.1-1.2,3.1c-0.2,0.4-0.5,0.7-0.8,0.7c-0.3,0-0.4-0.2-0.5-0.6
		c-0.2-2.2-0.4-4.5-0.6-6.7c-0.2-2.2-0.4-4.4-0.7-6.6c-0.2-2-0.5-4.2-0.8-6.5c-0.3-2.3-0.6-4.6-0.9-6.8c-0.3-2.2-0.6-4.3-0.8-6.2
		c-0.3-1.9-0.5-3.5-0.7-4.8c0-0.2,0-0.5,0.1-1c0.1-0.5,0.3-1,0.4-1.7c0.2-0.6,0.4-1.3,0.6-2c0.2-0.7,0.5-1.3,0.7-1.9
		c0.3-0.6,0.5-1,0.7-1.4C164.8,65.7,165,65.5,165.2,65.5z"/>
</g>
<g class="st1">
	<path class="st4" d="M32.7,116.3c-0.6-0.6-1.2-1.2-1.8-1.9c-0.6-0.7-1-1.5-1.3-2.4c-0.1-0.4-0.1-0.9-0.1-1.3c0-0.5,0.1-0.9,0.4-1.4
		c0.3-0.6,0.8-1.3,1.4-2.2c0.6-0.8,1.4-1.6,2.2-2.4c0.8-0.8,1.6-1.4,2.5-1.9c0.9-0.5,1.7-0.8,2.5-0.8c0.5,0,1,0.1,1.3,0.4
		c0.4,0.3,0.7,0.6,1.1,0.9c0.3,0.4,0.6,0.7,0.8,1.1c0.2,0.4,0.4,0.8,0.5,1.1c0.2,0.4,0.3,0.7,0.3,1c0,0.3,0,0.7-0.1,1.1
		c-0.1,0.3-0.2,0.6-0.4,0.9c-0.2,0.3-0.3,0.6-0.5,0.8c-0.2,0.3-0.4,0.5-0.6,0.6c-0.2,0.2-0.4,0.2-0.6,0.2c-0.3,0-0.5-0.2-0.7-0.5
		c-0.2-0.3-0.4-0.7-0.6-1c-0.2-0.4-0.4-0.7-0.6-1c-0.2-0.3-0.6-0.5-1-0.5c-0.3,0-0.7,0.1-1.1,0.2c-0.4,0.1-0.8,0.3-1.2,0.5
		c-0.4,0.2-0.7,0.4-1,0.7c-0.3,0.2-0.6,0.5-0.7,0.7c0.2,0.5,0.4,0.9,0.8,1.4c0.4,0.5,0.8,0.9,1.3,1.3c0.5,0.4,1,0.7,1.6,1
		c0.6,0.3,1.1,0.4,1.7,0.5c1.4,0.2,2.7,0.2,3.9,0c1.2-0.2,2.5-0.5,3.9-0.9c0,0.1,0,0.4-0.1,0.9c-0.1,0.5-0.3,1.1-0.4,1.7
		c-0.2,0.6-0.4,1.1-0.6,1.7c-0.2,0.5-0.3,0.8-0.4,0.8c-1.5,0.2-3,0.4-4.4,0.8c-1.4,0.4-2.8,0.8-4.3,1.4c-0.7,0.3-1.5,0.6-2.3,0.9
		c-0.8,0.4-1.6,0.7-2.4,1.1c-0.8,0.4-1.6,0.8-2.4,1.2c-0.8,0.4-1.5,0.8-2.1,1.1c-0.1,0-0.2,0-0.3-0.1c-0.1-0.1-0.1-0.2-0.1-0.3
		c0.1-0.8,0.3-1.6,0.5-2.4c0.2-0.8,0.6-1.5,1.1-2.2c0.5-0.5,1.1-1,1.9-1.5C31.1,117.2,31.9,116.7,32.7,116.3z"/>
	<path class="st4" d="M55.3,76.8c0-0.1,0.1-0.2,0.2-0.2c0.1,0,0.2,0.1,0.3,0.2c0.9,3.3,1.5,6.6,1.9,9.8c0.4,3.2,0.7,6.4,1,9.5l1,8.9
		c0.1,1.3,0.3,2.5,0.5,3.6c0.2,1.1,0.6,2,1.1,2.8c0.5,0.8,1.2,1.4,2.1,1.8c0.9,0.4,2.1,0.6,3.6,0.6h0.9h0.7c0.1,0,0.2,0.1,0.4,0.4
		c0.2,0.3,0.3,0.6,0.5,1c0.2,0.4,0.3,0.9,0.4,1.4c0.1,0.5,0.2,1,0.2,1.5c0,0.5-0.1,1-0.2,1.5c-0.1,0.5-0.2,1-0.4,1.4
		c-0.2,0.4-0.3,0.8-0.5,1c-0.2,0.3-0.3,0.4-0.4,0.4H67c-1.6,0-2.9-0.2-4.1-0.7c-1.2-0.5-2.1-1.2-2.9-2.1c-0.8-0.9-1.4-2-1.9-3.4
		c-0.5-1.3-0.8-2.9-1-4.6c-0.3-2.4-0.6-5.1-0.8-7.9c-0.3-2.8-0.6-5.6-0.8-8.4c-0.3-2.4-0.6-4.7-0.9-7c-0.4-2.3-0.8-4.3-1.4-6.2
		c-0.1-0.2-0.1-0.4-0.1-0.5c0-0.1,0-0.2,0.1-0.4c0.1-0.3,0.3-0.6,0.5-1.1c0.2-0.4,0.4-0.9,0.7-1.3c0.2-0.5,0.4-0.9,0.7-1.3
		C55,77.5,55.2,77.1,55.3,76.8z"/>
	<path class="st4" d="M92.3,107.1c0.2-0.3,0.4-0.6,0.6-0.7c0.2-0.1,0.4-0.2,0.6-0.1c0.2,0,0.3,0.1,0.4,0.3c0.1,0.2,0.1,0.4,0,0.7
		c-0.1,0.6-0.3,1.1-0.4,1.7c-0.2,0.6-0.3,1.1-0.5,1.7c0.1,0.3,0.4,0.6,1,1c0.6,0.4,1.3,0.7,2.1,1.1c0.8,0.3,1.6,0.6,2.4,0.8
		c0.8,0.2,1.4,0.3,1.9,0.1c0.4-0.2,0.7-0.5,1-0.9c0.3-0.4,0.6-0.9,0.9-1.4c0.3-0.6,0.5-1.1,0.7-1.8c0.2-0.6,0.4-1.3,0.5-1.9
		c0.1-0.3,0.3-0.6,0.5-0.8c0.2-0.2,0.4-0.3,0.6-0.3c0.2,0,0.4,0,0.6,0.1c0.2,0.1,0.2,0.3,0.2,0.6c0,1,0.1,1.9,0.3,2.7
		c0.2,0.8,0.6,1.5,1.1,2.1c0.5,0.6,1.2,1,2.1,1.4c0.9,0.3,2,0.5,3.3,0.5h0.9h0.6c0.1,0,0.2,0.1,0.4,0.4c0.2,0.3,0.4,0.6,0.5,1
		c0.2,0.4,0.3,0.9,0.4,1.4c0.1,0.5,0.2,1,0.2,1.5c0,0.5-0.1,1-0.2,1.5c-0.1,0.5-0.3,1-0.5,1.4c-0.2,0.4-0.4,0.8-0.5,1
		c-0.2,0.3-0.3,0.4-0.4,0.4h-1.6c-1.3,0-2.4-0.2-3.4-0.5c-1-0.3-1.8-0.7-2.5-1.2c-0.7-0.5-1.3-1.1-1.8-1.7c-0.5-0.6-0.9-1.2-1.1-1.8
		c-0.6,1.3-1.2,2.4-1.8,3.2c-0.7,0.8-1.3,1.3-1.8,1.3c-0.8,0.2-1.8,0.2-2.8-0.1c-1-0.3-2-0.6-3-1.1c-1-0.5-1.8-1-2.6-1.6
		c-0.8-0.6-1.3-1.1-1.6-1.5c-0.7,1.2-1.7,2.1-2.9,2.8c-1.2,0.7-2.4,1.2-3.7,1.4c-1.3,0.2-2.7,0.3-4,0.1c-1.3-0.2-2.5-0.6-3.6-1.1
		c-0.5,0.3-1,0.6-1.6,0.8c-0.6,0.2-1.2,0.4-1.8,0.6c-0.6,0.2-1.2,0.3-1.9,0.4c-0.6,0.1-1.2,0.1-1.8,0.1h-1.5c-0.1,0-0.3-0.1-0.5-0.4
		c-0.2-0.3-0.4-0.6-0.6-1c-0.2-0.4-0.3-0.9-0.5-1.4c-0.1-0.5-0.2-1-0.2-1.5c0-0.5,0.1-1,0.2-1.5c0.1-0.5,0.3-1,0.5-1.4
		c0.2-0.4,0.4-0.8,0.6-1c0.2-0.3,0.3-0.4,0.5-0.4h0.6h0.9c1.4,0,2.6-0.1,3.7-0.3c1.1-0.2,2.1-0.5,3-0.9c0.9-0.4,1.7-1,2.5-1.8
		c0.8-0.7,1.5-1.7,2.3-2.8c0.1-0.2,0.2-0.3,0.4-0.5c0.2-0.1,0.3-0.2,0.5-0.2c0.2,0,0.3,0.1,0.4,0.2c0.1,0.1,0.1,0.3,0.1,0.6
		c-0.1,0.4-0.2,0.8-0.3,1.2c-0.1,0.5-0.3,0.9-0.5,1.4c-0.2,0.5-0.4,0.9-0.6,1.4c-0.2,0.4-0.5,0.8-0.7,1.1c0.8,0.2,1.7,0.3,2.7,0.3
		c1,0.1,1.9,0,2.9-0.1c0.9-0.1,1.8-0.4,2.6-0.8c0.8-0.4,1.5-0.9,2-1.6c0.5-0.6,1-1.3,1.3-2.1C91.5,108.6,91.9,107.8,92.3,107.1z
		 M92.8,94.7l3.1-4.1c0.2-0.2,0.4-0.2,0.5-0.1l4.6,3.8c0.2,0.1,0.2,0.3,0.1,0.6l-3.4,4.4c-0.2,0.2-0.4,0.3-0.6,0l-4.2-3.5l-3.1,4.1
		c-0.2,0.2-0.4,0.2-0.6,0l-4.6-3.7c-0.2-0.2-0.2-0.4,0-0.6l3.5-4.4c0.1-0.1,0.3-0.2,0.5-0.1L92.8,94.7z M95.9,87
		c0.1,0.1,0.2,0.2,0.2,0.3c0,0.1,0,0.2-0.1,0.3l-3.4,3.8c-0.2,0.2-0.4,0.2-0.6,0L87.8,88c-0.2-0.2-0.2-0.3,0-0.5l3.4-4
		c0.2-0.2,0.4-0.2,0.5-0.1L95.9,87z"/>
	<path class="st4" d="M126.4,111.2c-0.5-0.5-1.1-1-1.7-1.6c-0.6-0.5-1.3-0.9-2-1.1c-0.8-0.2-1.4-0.3-2-0.2c-0.6,0.1-1.2,0.4-1.7,0.8
		c-0.3,0.2-0.6,0.3-0.9,0.2c-0.3-0.1-0.4-0.4-0.4-0.9c0.1-1.4,0.4-2.7,0.9-3.9c0.5-1.2,1.3-2.2,2.2-3.1c0.9-0.8,2.1-1.5,3.4-2
		c1.4-0.5,2.9-0.7,4.6-0.6c1.1,0,2.2,0.2,3.2,0.4c1.1,0.2,2,0.6,2.9,1c0.8,0.5,1.5,1.1,2,1.8c0.5,0.7,0.8,1.6,0.8,2.6
		c0,0.7-0.1,1.4-0.4,2.1c-0.3,0.7-0.6,1.4-1,2.1c-0.4,0.6-0.8,1.2-1.2,1.7c-0.4,0.5-0.8,0.9-1.1,1.1c0.9,0.8,1.9,1.4,3.1,1.8
		c1.2,0.3,2.5,0.5,4,0.5h0.9h0.6c0.1,0,0.2,0.1,0.4,0.4c0.2,0.3,0.3,0.6,0.5,1c0.2,0.4,0.3,0.8,0.4,1.3c0.1,0.5,0.2,1,0.2,1.4
		c0,0.5-0.1,1-0.2,1.5c-0.1,0.5-0.2,1-0.4,1.5c-0.2,0.5-0.3,0.8-0.5,1.1c-0.2,0.3-0.3,0.4-0.4,0.4h-1.5c-1.6,0-3-0.1-4.1-0.4
		c-1.2-0.3-2.2-0.7-3.2-1.2c-0.9-0.5-1.8-1.1-2.5-1.8c-0.7-0.7-1.5-1.5-2.2-2.3c-1.1,1-2.3,1.8-3.6,2.5c-1.3,0.7-2.5,1.3-3.8,1.8
		c-1.3,0.5-2.6,0.8-3.9,1c-1.3,0.2-2.5,0.3-3.6,0.3h-1.5c-0.1,0-0.3-0.1-0.4-0.4c-0.2-0.3-0.3-0.6-0.5-1c-0.2-0.4-0.3-0.9-0.4-1.4
		c-0.1-0.5-0.2-1-0.2-1.5c0-0.5,0.1-1,0.2-1.5c0.1-0.5,0.3-1,0.4-1.4c0.2-0.4,0.3-0.8,0.5-1c0.2-0.3,0.3-0.4,0.4-0.4h0.6h1
		c0.9,0,1.9,0,2.9-0.1c1.1-0.1,2.1-0.2,3.2-0.4c1.1-0.2,2.2-0.5,3.2-0.9C124.6,112.2,125.6,111.8,126.4,111.2z"/>
	<path class="st4" d="M142.9,122.7h-1.5c-0.1,0-0.3-0.1-0.5-0.4c-0.2-0.3-0.4-0.6-0.5-1c-0.2-0.4-0.3-0.9-0.4-1.4
		c-0.1-0.5-0.2-1-0.2-1.5c0-0.5,0.1-1,0.2-1.5c0.1-0.5,0.3-1,0.4-1.4c0.2-0.4,0.3-0.8,0.5-1c0.2-0.3,0.3-0.4,0.5-0.4h0.7h0.9
		c0.3,0,0.7,0,1.3,0c0.6,0,1.3,0,2.1-0.1c0.8,0,1.6-0.1,2.5-0.2c0.9-0.1,1.7-0.2,2.5-0.3c0.8-0.1,1.4-0.3,2-0.5
		c0.6-0.2,0.9-0.4,1.1-0.7l-4.2-27.6c-0.6-1.9-1.3-3.6-2.2-5c-0.2-0.3-0.3-0.4-0.3-0.5c0-0.1,0.1-0.3,0.3-0.6c0.2-0.3,0.5-0.6,0.7-1
		c0.3-0.4,0.6-0.8,0.8-1.3c0.3-0.5,0.5-0.9,0.8-1.3c0.3-0.4,0.5-0.8,0.6-1.2c0.1-0.2,0.3-0.4,0.4-0.5c0.1-0.1,0.3,0.1,0.4,0.4
		c0.1,0.5,0.4,1.1,0.7,1.7c0.3,0.6,0.6,1.1,1,1.7c0.4,0.5,0.8,1,1.3,1.5c0.5,0.5,0.9,0.8,1.4,1.1c-0.6,1-1.1,1.9-1.5,2.7
		c-0.4,0.8-0.5,1.5-0.4,2.2l3.1,24.8c0.1,0.7,0.1,1.5,0.1,2.5c0,0.9-0.2,1.8-0.4,2.8c-0.2,0.9-0.5,1.8-0.9,2.7
		c-0.4,0.9-0.8,1.6-1.4,2.2c-0.7,0.7-1.4,1.3-2.3,1.7c-0.9,0.4-1.8,0.7-2.8,0.9c-1,0.2-2.1,0.3-3.2,0.4
		C145.3,122.6,144.1,122.7,142.9,122.7z"/>
	<path class="st4" d="M168.3,76.2c0.2,0,0.3,0.2,0.4,0.5c0.1,0.3,0.1,0.7,0.2,1.1c0,0.4,0,0.8,0,1.2c0,0.4,0,0.7,0,0.9
		c0.1,1.2,0.2,2.4,0.4,3.6c0.1,1.3,0.3,2.5,0.4,3.8c0.5,3.7,1,7.3,1.5,10.8c0.5,3.6,0.9,7.2,1.2,10.9c0.1,1,0.2,2.1,0.2,3.2
		c0,1.1,0,2.3-0.1,3.4c-0.1,1.1-0.3,2.2-0.6,3.3c-0.3,1.1-0.7,2.1-1.2,3.1c-0.2,0.4-0.5,0.7-0.8,0.7c-0.3,0-0.4-0.2-0.5-0.6
		c-0.2-2.2-0.4-4.5-0.6-6.7c-0.2-2.2-0.4-4.4-0.7-6.6c-0.2-2-0.5-4.2-0.8-6.5c-0.3-2.3-0.6-4.6-0.9-6.8c-0.3-2.2-0.6-4.3-0.8-6.2
		c-0.3-1.9-0.5-3.5-0.7-4.8c0-0.2,0-0.5,0.1-1c0.1-0.5,0.3-1,0.4-1.7c0.2-0.6,0.4-1.3,0.6-2c0.2-0.7,0.5-1.3,0.7-1.9
		c0.3-0.6,0.5-1,0.7-1.4C167.9,76.4,168.1,76.2,168.3,76.2z"/>
</g>
</svg>
